<?xml version="1.0" standalone="no"?>
<!DOCTYPE svg PUBLIC "-//W3C//DTD SVG 20010904//EN"
 "http://www.w3.org/TR/2001/REC-SVG-20010904/DTD/svg10.dtd">
<svg version="1.0" xmlns="http://www.w3.org/2000/svg"
 width="512.000000pt" height="512.000000pt" viewBox="0 0 512.000000 512.000000"
 preserveAspectRatio="xMidYMid meet">
<metadata>
Created by potrace 1.14, written by Peter Selinger 2001-2017
</metadata>
<g transform="translate(0.000000,512.000000) scale(0.100000,-0.100000)"
fill="#000000" stroke="none">
<path d="M2400 5064 c-93 -19 -99 -20 -164 -39 -70 -20 -202 -89 -303 -157
-40 -26 -75 -48 -79 -48 -15 0 -64 -43 -64 -56 0 -7 -21 -35 -46 -61 -26 -27
-72 -81 -103 -122 -31 -41 -66 -85 -78 -97 -13 -13 -23 -30 -23 -39 0 -9 -16
-46 -35 -83 -100 -195 -153 -425 -149 -652 1 -69 4 -144 8 -167 17 -125 38
-217 55 -250 31 -60 98 -114 159 -127 17 -4 32 -11 33 -14 0 -4 2 -23 4 -42
17 -167 72 -312 168 -438 55 -72 156 -163 228 -203 44 -25 58 -39 56 -54 -2
-20 -5 -21 -247 -50 -30 -4 -58 -9 -63 -12 -4 -2 -20 -6 -35 -9 -52 -9 -187
-45 -258 -70 -54 -18 -78 -22 -96 -15 -20 7 -34 4 -69 -16 -24 -14 -64 -37
-89 -50 -136 -76 -230 -137 -231 -149 -1 -8 -2 -18 -3 -23 0 -5 -24 -31 -51
-58 -100 -98 -159 -184 -213 -311 -54 -125 -74 -231 -77 -407 -2 -131 -3 -142
-45 -420 -40 -270 -40 -270 -41 -375 0 -187 46 -292 154 -353 79 -44 130 -52
297 -49 212 4 386 5 470 4 14 0 95 -4 180 -8 85 -5 718 -8 1405 -7 l1250 1 55
22 c146 58 218 178 224 373 3 109 -21 303 -59 477 -34 153 -56 307 -61 410 -9
240 -35 353 -110 487 -49 89 -141 192 -220 250 -37 26 -80 60 -96 74 -16 15
-44 30 -62 33 -21 4 -41 17 -51 32 -11 18 -24 25 -43 24 -43 -3 -50 -1 -71 21
-11 12 -34 22 -53 23 -18 2 -73 15 -123 30 -49 15 -142 38 -205 51 -119 25
-129 27 -245 45 -109 17 -128 21 -136 26 -17 10 6 35 79 82 124 81 250 225
302 346 30 72 60 174 66 230 8 83 12 93 43 106 75 31 165 158 196 276 83 318
-22 824 -242 1169 -49 76 -180 211 -228 235 -16 8 -42 22 -56 32 -86 57 -245
124 -379 159 -105 27 -329 34 -430 13z m267 -108 c1 -1 -80 -49 -180 -106
-264 -153 -283 -163 -272 -153 19 19 352 260 366 266 11 4 78 -1 86 -7z m-288
0 c-4 -3 -289 -169 -359 -208 l-35 -20 25 22 c14 12 36 31 50 43 14 12 55 48
91 79 53 46 78 61 125 72 56 14 112 20 103 12z m480 -42 c6 -6 16 0 -184 -114
-99 -57 -208 -121 -242 -142 -35 -21 -63 -36 -63 -33 0 2 62 47 138 99 75 52
173 120 217 151 63 43 85 54 105 49 14 -3 27 -8 29 -10z m135 -50 c9 -3 16
-10 16 -14 0 -4 -66 -46 -147 -93 -82 -47 -184 -106 -228 -132 -44 -26 -75
-42 -70 -36 9 9 407 281 412 281 1 0 8 -3 17 -6z m166 -105 c0 -5 -5 -9 -10
-9 -6 0 -29 -11 -51 -26 -22 -14 -57 -34 -77 -46 -38 -21 -408 -234 -472 -271
-77 -45 -3 8 235 169 138 92 268 180 290 195 36 25 41 26 62 12 13 -9 23 -19
23 -24z m117 -81 l23 -21 -82 -49 c-44 -26 -82 -48 -83 -48 -2 0 -65 -37 -141
-81 -77 -45 -159 -93 -184 -107 -25 -14 -99 -56 -165 -95 -66 -38 -124 -72
-130 -75 -20 -10 1 7 40 34 255 172 452 307 555 377 69 47 129 86 134 87 6 0
20 -10 33 -22z m92 -112 c-2 -1 -58 -33 -124 -71 -66 -38 -130 -75 -142 -83
-13 -8 -23 -12 -23 -9 0 3 21 19 48 35 26 16 90 58 142 91 52 34 96 57 98 51
2 -6 2 -12 1 -14z m-1591 -79 c-62 -45 -128 -93 -146 -106 l-33 -23 13 31 c10
25 39 47 138 105 69 41 129 74 133 75 5 1 -42 -36 -105 -82z m1662 9 c0 -2
-21 -17 -47 -32 -27 -15 -59 -34 -73 -43 -47 -28 -8 4 48 41 54 35 72 43 72
34z m65 -117 c9 -17 15 -32 13 -34 -2 -1 -61 -36 -133 -78 -71 -41 -194 -111
-273 -156 -78 -46 -147 -81 -152 -79 -10 3 506 375 522 377 4 1 15 -13 23 -30z
m-1635 7 c-8 -7 -67 -48 -130 -91 -173 -118 -175 -119 -178 -127 -9 -20 -19
-5 -13 19 6 22 37 45 167 120 87 51 161 92 164 93 2 0 -2 -6 -10 -14z m35
-134 c-6 -5 -94 -66 -197 -136 -168 -114 -188 -124 -188 -103 0 16 10 28 33
40 17 9 50 27 72 40 137 82 281 166 285 166 2 1 0 -3 -5 -7z m160 -61 c-6 -4
-102 -70 -215 -146 -113 -76 -225 -152 -250 -170 -25 -18 -54 -37 -66 -43 -19
-10 -21 -8 -22 17 -1 27 4 32 72 71 17 9 132 76 256 148 218 127 245 142 225
123z m155 -76 c0 -10 -183 -125 -199 -125 -19 1 -28 -6 104 74 102 61 95 58
95 51z m1390 -60 c0 -8 -3 -15 -7 -15 -5 0 -46 -23 -93 -51 -97 -57 -95 -51
11 26 80 59 89 63 89 40z m16 -270 c-4 -14 -11 -25 -16 -25 -5 0 -26 -11 -46
-25 -69 -47 -71 -26 -4 36 64 59 78 62 66 14z m-1999 -46 c-8 -26 -25 -46 -57
-68 -25 -17 -49 -31 -53 -31 -4 0 -7 15 -7 34 0 31 5 37 62 69 35 20 64 35 65
34 1 -1 -4 -19 -10 -38z m1634 -118 c-74 -66 -106 -84 -119 -68 -8 10 9 25 76
64 48 29 89 52 92 52 3 0 -19 -22 -49 -48z m-1582 -144 c-38 -26 -64 -50 -64
-61 0 -17 -50 -66 -67 -66 -4 0 -12 10 -19 21 -10 19 -7 25 17 45 16 13 32 23
35 24 4 0 38 18 75 40 91 53 104 51 23 -3z m1831 15 c0 -5 -17 -17 -37 -29
-21 -11 -78 -43 -126 -71 -48 -29 -86 -48 -83 -43 6 9 228 147 244 150 1 1 2
-3 2 -7z m-1660 -86 c-8 -8 -62 -46 -119 -85 -77 -52 -108 -68 -115 -60 -7 8
-8 13 -1 16 6 2 62 35 125 73 122 73 133 78 110 56z m1675 -36 c-3 -5 -12 -10
-18 -10 -7 0 -6 4 3 10 19 12 23 12 15 0z m-35 -15 c0 -2 -10 -9 -22 -15 -22
-11 -22 -10 -4 4 21 17 26 19 26 11z m70 -81 c-8 -8 -23 -20 -34 -25 -13 -7
-9 -1 9 15 34 29 43 33 25 10z m-1110 -60 c-36 -25 -153 -106 -260 -181 -107
-74 -230 -160 -272 -190 l-77 -54 -16 32 c-9 17 -13 35 -8 39 4 4 148 87 318
185 171 97 321 185 335 195 14 11 29 19 35 19 5 1 -19 -20 -55 -45z m-495 -13
c-8 -14 -183 -131 -194 -131 -6 0 -11 9 -11 19 0 14 27 35 97 75 86 49 124 61
108 37z m1420 -51 c-3 -5 -16 -15 -28 -21 -19 -9 -19 -8 3 10 28 23 34 26 25
11z m-1420 -89 c-29 -25 -167 -112 -172 -107 -8 8 -9 7 87 65 84 50 103 59 85
42z m1396 -84 c-8 -22 -24 -40 -49 -54 -20 -11 -92 -52 -159 -91 -68 -39 -123
-69 -123 -67 0 1 42 34 92 71 51 38 100 75 108 81 48 40 135 101 138 98 2 -2
-1 -19 -7 -38z m-1211 -122 c0 -5 -227 -155 -235 -155 -3 0 -5 4 -5 9 0 9 164
111 178 111 4 0 18 9 32 20 27 21 30 23 30 15z m155 -41 c-11 -9 -84 -58 -162
-109 -100 -66 -144 -90 -152 -82 -10 10 54 50 259 164 25 14 49 29 55 34 5 5
11 9 15 9 3 -1 -4 -8 -15 -16z m250 -113 c-6 -5 -82 -56 -169 -114 -125 -83
-163 -104 -173 -95 -11 9 2 20 64 56 43 24 123 71 178 103 99 58 118 67 100
50z m245 5 c0 -2 -87 -68 -192 -147 -106 -79 -194 -147 -196 -151 -2 -5 -8 -8
-13 -8 -5 0 -3 13 6 29 8 17 13 36 10 43 -5 12 4 19 102 74 23 13 95 55 160
94 123 72 123 72 123 66z m-500 -30 c0 -2 -7 -7 -16 -10 -8 -3 -12 -2 -9 4 6
10 25 14 25 6z m-40 -20 c0 -9 -172 -117 -178 -112 -8 8 -5 10 89 65 93 55 89
53 89 47z m874 -67 c-28 -31 -131 -102 -191 -133 -62 -31 -67 -32 -54 -9 7 13
239 158 260 162 2 1 -4 -9 -15 -20z m-1079 -238 c-12 -10 -635 -370 -635 -366
0 1 92 71 205 155 113 83 205 158 205 165 0 22 16 27 119 40 53 7 100 13 106
14 6 1 6 -2 0 -8z m1024 -32 c-32 -24 -37 -24 -32 4 4 19 10 23 30 19 l26 -5
-24 -18z m218 -23 c2 -2 -262 -156 -352 -206 l-40 -22 35 37 c28 30 203 155
216 155 2 0 19 11 39 24 26 18 44 23 68 19 17 -3 33 -6 34 -7z m-1652 -14 c-6
-5 -95 -57 -200 -117 -104 -60 -203 -117 -220 -128 -16 -10 1 10 40 44 38 35
87 81 109 102 28 27 62 45 125 66 120 40 166 50 146 33z m1815 -9 c0 -5 -55
-39 -122 -78 -68 -38 -148 -85 -180 -103 -86 -49 -70 -31 20 23 42 26 120 73
172 106 95 58 110 66 110 52z m-1364 -78 c-11 -7 -44 -25 -72 -42 -50 -30
-106 -62 -199 -115 -53 -30 -95 -39 -60 -14 11 8 90 64 175 124 l155 110 11
-26 c10 -23 9 -28 -10 -37z m824 46 c0 -5 -12 -17 -27 -26 l-28 -18 24 27 c26
28 31 31 31 17z m766 -9 c8 -5 -40 -38 -134 -92 -216 -125 -208 -121 -260
-118 l-46 3 77 49 c42 26 121 77 174 112 88 58 102 63 137 59 22 -3 45 -9 52
-13z m71 -86 c-86 -52 -173 -100 -166 -92 15 16 195 125 208 125 8 1 -11 -14
-42 -33z m157 -25 c6 -10 -273 -175 -281 -167 -3 3 25 24 63 48 37 24 98 62
134 85 71 45 76 47 84 34z m-1720 -38 c4 -9 1 -20 -6 -25 -40 -27 -73 -39 -99
-36 -30 3 -30 3 27 41 65 42 69 43 78 20z m1836 -58 c15 -15 20 -29 14 -34
-10 -10 -268 -159 -288 -167 -7 -3 -21 6 -30 20 l-16 26 117 76 c65 42 127 82
138 90 29 19 39 17 65 -11z m-2060 -90 c0 -2 -21 -16 -47 -31 -27 -15 -58 -34
-70 -42 -40 -25 -25 -4 25 35 39 32 92 53 92 38z m2164 -39 c8 -14 7 -20 -4
-28 -40 -25 -345 -201 -356 -205 -14 -5 -11 35 3 47 27 25 329 210 337 207 5
-2 14 -11 20 -21z m-3029 -34 c-13 -12 -162 -122 -202 -150 l-31 -22 11 29 c8
21 37 44 111 89 92 55 136 76 111 54z m215 -40 c0 -4 -12 -15 -28 -24 -15 -9
-120 -81 -232 -160 -113 -79 -218 -151 -234 -161 l-28 -19 7 34 c10 44 8 43
68 76 124 69 423 244 432 253 11 11 15 11 15 1z m2889 -56 c-9 -9 -438 -256
-444 -256 -25 0 28 39 210 155 180 114 212 131 224 119 8 -7 13 -16 10 -18z
m-2835 -101 c-4 -8 -10 -15 -14 -15 -5 0 -15 -6 -22 -12 -7 -7 -49 -37 -93
-67 -83 -56 -273 -185 -409 -279 l-79 -54 6 42 c3 23 9 46 14 50 7 8 595 350
600 350 1 0 0 -7 -3 -15z m2857 -3 c-32 -22 -148 -87 -139 -78 11 13 143 94
153 95 6 0 -1 -8 -14 -17z m53 -92 c-11 -10 -193 -120 -200 -120 -2 0 -23 -12
-45 -26 -23 -14 -38 -21 -35 -16 3 6 46 34 94 63 48 29 109 67 136 85 28 19
52 31 55 29 2 -3 0 -9 -5 -15z m26 -115 c-7 -8 -16 -15 -21 -15 -8 0 -32 -14
-182 -103 -85 -51 -119 -64 -47 -18 237 152 285 178 250 136z m-680 -15 c0 -8
-131 -91 -190 -119 -31 -14 -24 -9 98 71 101 65 92 61 92 48z m344 -55 c-10
-8 -23 -15 -28 -15 -6 0 -1 7 10 15 10 8 23 15 28 15 6 0 1 -7 -10 -15z m372
-33 c-5 -9 -269 -163 -291 -170 -12 -4 119 82 219 145 65 40 86 47 72 25z
m-3106 -56 c0 -2 -91 -61 -202 -132 -112 -70 -210 -133 -218 -139 -8 -6 -32
-22 -52 -34 -36 -21 -38 -22 -38 -4 0 14 51 48 198 133 108 62 222 128 252
147 56 34 60 36 60 29z m3134 -72 c4 -15 6 -27 4 -29 -2 -1 -122 -71 -268
-155 -146 -83 -292 -168 -325 -187 -33 -19 -55 -30 -50 -24 14 14 618 419 626
420 4 1 10 -11 13 -25z m-3092 -56 c-61 -40 -124 -80 -139 -89 -25 -14 -324
-206 -395 -253 l-28 -18 0 25 c0 19 10 31 43 49 23 14 119 69 212 123 94 54
184 106 200 115 17 10 59 35 95 56 99 59 104 62 115 63 5 1 -41 -32 -103 -71z
m3117 -114 c1 -10 -128 -88 -339 -207 -19 -10 -73 -41 -120 -68 -115 -67 -77
-38 145 111 103 69 212 143 243 166 57 41 69 41 71 -2z m-2989 -87 c0 -12 -37
-38 -190 -135 -77 -50 -142 -91 -240 -154 -189 -121 -297 -188 -303 -188 -9 0
-9 52 1 66 4 6 88 57 187 114 99 56 194 111 210 121 17 10 55 32 85 48 30 17
96 55 145 85 99 59 105 62 105 43z m3006 -65 c-2 -8 -45 -40 -97 -69 -51 -30
-148 -86 -214 -125 -66 -38 -115 -65 -110 -60 6 6 100 74 210 151 189 133 217
147 211 103z m-3446 -57 c0 -2 -10 -9 -22 -15 -22 -11 -22 -10 -4 4 21 17 26
19 26 11z m-50 -30 c0 -2 -43 -30 -95 -61 -53 -31 -98 -61 -101 -65 -7 -12
-24 -11 -24 0 0 5 15 16 33 25 17 9 66 36 107 61 82 48 80 47 80 40z m3495
-47 c-11 -6 -32 -20 -47 -30 -16 -11 -28 -17 -28 -14 0 8 73 56 85 56 5 0 1
-6 -10 -12z m-2205 -112 c0 -6 -271 -172 -295 -180 -44 -16 9 20 147 100 153
89 148 86 148 80z m2230 -19 c0 -17 -12 -30 -42 -47 -24 -13 -83 -48 -133 -77
-49 -30 -83 -47 -75 -39 26 26 235 186 243 186 4 0 7 -10 7 -23z m-2660 -62
c0 -2 -15 -12 -32 -21 -18 -9 -35 -20 -38 -24 -9 -14 -75 -50 -90 -49 -8 0 5
11 30 25 25 14 63 36 85 49 43 27 45 27 45 20z m-376 -55 c-4 -19 -30 -41
-102 -86 -53 -34 -175 -111 -270 -173 -96 -61 -181 -111 -190 -111 -9 0 -30
10 -45 23 l-28 22 153 88 c84 48 225 129 313 181 88 51 163 90 167 87 3 -3 4
-17 2 -31z m-248 17 c-10 -7 -48 -30 -85 -53 -36 -23 -125 -78 -196 -122 -140
-87 -165 -100 -165 -84 0 6 21 22 48 37 83 48 124 71 267 154 77 45 142 81
145 80 3 0 -3 -6 -14 -12z m3308 -54 c3 -15 -8 -26 -47 -46 -29 -15 -68 -37
-87 -49 -42 -26 -35 -18 50 53 36 30 67 58 69 62 4 11 11 3 15 -20z m-3664
-37 c0 -2 -7 -7 -16 -10 -8 -3 -12 -2 -9 4 6 10 25 14 25 6z m-44 -25 c-8 -13
-76 -52 -76 -43 0 4 17 17 38 29 42 25 45 26 38 14z m1014 -45 c0 -2 -7 -7
-16 -10 -8 -3 -12 -2 -9 4 6 10 25 14 25 6z m1660 0 c0 -2 -35 -24 -77 -49
-43 -25 -96 -55 -117 -68 -22 -13 -36 -18 -32 -11 4 6 37 28 74 49 37 20 82
48 101 60 31 21 51 29 51 19z m463 -19 c-58 -47 -63 -50 -63 -38 0 10 67 59
83 60 5 1 -4 -9 -20 -22z m-2585 -77 c-1 -32 -6 -35 -160 -133 -32 -20 -58
-40 -58 -45 0 -4 -12 -7 -27 -6 -81 7 -93 9 -93 14 0 4 325 196 337 200 1 0 1
-14 1 -30z m2771 17 c-17 -13 -115 -96 -133 -112 -62 -57 -90 -75 -116 -75
-64 0 -31 35 120 124 113 67 172 96 129 63z m391 3 c0 -12 -42 -51 -48 -45 -5
5 37 55 45 55 2 0 3 -4 3 -10z m-2450 -24 c0 -9 -209 -137 -230 -141 -32 -6
-27 -3 106 74 130 76 124 73 124 67z m2289 -13 c-11 -14 -98 -120 -125 -152
-2 -2 -43 -5 -91 -7 -49 -2 -82 -1 -74 2 7 4 49 28 93 55 44 27 81 49 83 49 2
0 30 16 62 35 66 40 71 41 52 18z m-2829 -58 c-26 -27 -40 -32 -40 -12 0 7 10
17 23 23 37 19 42 15 17 -11z m2083 -49 c-10 -13 -26 -24 -35 -23 -26 2 -22
14 10 31 39 22 45 19 25 -8z m-2236 -33 c4 -11 -28 -23 -62 -23 -17 0 -15 3
10 20 31 21 46 21 52 3z"/>
</g>
</svg>
